<?xml version="1.0" encoding="UTF-8"?>
<svg width="116px" height="33px" viewBox="0 0 116 33" version="1.1" xmlns="http://www.w3.org/2000/svg" xmlns:xlink="http://www.w3.org/1999/xlink">
    <!-- Generator: Sketch 51 (57462) - http://www.bohemiancoding.com/sketch -->
    <title>logo</title>
    <desc>Created with Sketch.</desc>
    <defs></defs>
    <g id="Page-1" stroke="none" stroke-width="1" fill="none" fill-rule="evenodd">
        <g id="logo" fill-rule="nonzero">
            <g id="Nav">
                <g id="logo">
                    <path d="M31.4132299,15.0731132 L21.5168412,15.0731132 C20.7685687,12.1674923 17.9820968,10.2729999 15.0128625,10.6511277 C12.0436282,11.0292556 9.81802689,13.5620285 9.81802689,16.5629409 C9.81802689,19.5638532 12.0436282,22.0966262 15.0128625,22.474754 C17.9820968,22.8528818 20.7685687,20.9583894 21.5168412,18.0527685 L28.3819036,18.0527685 C27.7401286,23.6109911 23.559668,28.1006161 18.0730494,29.1240101 C12.5864307,30.1474041 7.07526456,27.4655142 4.48272671,22.5105732 C1.89018885,17.5556323 2.82186608,11.4850571 6.78020672,7.5407695 C10.7385474,3.5964819 16.798929,2.69982177 21.7248734,5.32964028 C20.9283685,7.55588796 21.8580336,10.0328622 23.9207791,11.1803513 C25.9835245,12.3278405 28.5717136,11.8078209 30.0341839,9.95204462 C31.4966542,8.09626831 31.4025961,5.45140372 29.8120149,3.70476992 C28.2214338,1.95813612 25.6028777,1.62425074 23.626882,2.91611947 C17.4530059,-0.657685124 9.65473085,0.371648118 4.61376657,5.42575546 C-0.427197707,10.4798628 -1.45389595,18.2985118 2.11055502,24.488545 C5.67500598,30.6785781 12.9418168,33.696522 19.8278979,31.8466485 C26.713979,29.9967749 31.5022986,23.7403466 31.5023865,16.5927374 C31.5023865,15.9968064 31.4726676,15.4902649 31.4132299,15.0731132 Z M15.7513775,19.5425962 C14.1100488,19.5425962 12.779489,18.2085591 12.779489,16.5629409 C12.779489,14.9173227 14.1100488,13.5832855 15.7513775,13.5832855 C17.3927062,13.5832855 18.723266,14.9173227 18.723266,16.5629409 C18.723266,18.2085591 17.3927062,19.5425962 15.7513775,19.5425962 Z M26.2421439,5.18065751 C26.9633539,5.18065751 27.6135489,5.61623934 27.8895441,6.28429187 C28.1655392,6.95234441 28.0129819,7.72130613 27.5030094,8.2326114 C26.9930369,8.74391667 26.2260796,8.89687267 25.5597684,8.62015625 C24.8934572,8.34343983 24.4590108,7.69154556 24.4590108,6.96845071 C24.4590108,5.98107979 25.2573467,5.18065751 26.2421439,5.18065751 Z" id="Shape" fill="#347EFF"></path>
                    <path d="M62.2121352,23.4303175 C62.2452742,23.5172138 62.2452742,23.6133132 62.2121352,23.7002094 C62.1151861,23.726588 62.0129771,23.726588 61.916028,23.7002094 C60.7313329,23.8824233 59.534374,23.9726554 58.3358228,23.9701013 C57.7574271,23.9781414 57.1798439,23.9238515 56.6130172,23.8081662 C56.1341109,23.7016621 55.6782089,23.5096828 55.2670754,23.2413932 C54.8371234,22.9538191 54.5076822,22.5385821 54.3249161,22.053869 C54.0936455,21.4329719 53.9839677,20.7731853 54.0018901,20.1106475 L54.0018901,13.6602318 C53.9846393,12.9977408 54.0942959,12.3380816 54.3249161,11.7170104 C54.5060758,11.231384 54.8358746,10.8156963 55.2670754,10.5294861 C55.6782089,10.2611965 56.1341109,10.0692173 56.6130172,9.96271321 C57.1798439,9.8470279 57.7574271,9.79273796 58.3358228,9.80077809 C59.534374,9.798224 60.7313329,9.88845611 61.916028,10.07067 C62.0129771,10.0442914 62.1151861,10.0442914 62.2121352,10.07067 C62.2452742,10.1575662 62.2452742,10.2536656 62.2121352,10.3405618 L62.2121352,11.5550752 C62.2121352,11.7637553 62.0434076,11.9329239 61.8352715,11.9329239 L58.0127967,11.9329239 C57.5956173,11.8892372 57.1784518,12.0156866 56.8552868,12.2837833 C56.5980347,12.6534799 56.4832617,13.1041824 56.5322607,13.5522751 L56.5322607,15.5764641 L61.6199208,15.5764641 C61.8280569,15.5764641 61.9967845,15.7456327 61.9967845,15.9543127 L61.9967845,17.3037721 C61.9967845,17.5124521 61.8280569,17.6816207 61.6199208,17.6816207 L56.5322607,17.6816207 L56.5322607,20.1106475 C56.4402515,20.6116845 56.5569927,21.128639 56.8552868,21.5410744 C57.1784518,21.8091711 57.5956173,21.9356205 58.0127967,21.8919339 L61.8352715,21.8919339 C62.0434076,21.8919339 62.2121352,22.0611025 62.2121352,22.2697825 L62.2121352,23.4303175 Z" id="Shape" fill="#292F3A"></path>
                    <path d="M73.2121352,23.4303175 C73.2452742,23.5172138 73.2452742,23.6133132 73.2121352,23.7002094 C73.1151861,23.726588 73.0129771,23.726588 72.916028,23.7002094 C71.7313451,23.8825302 70.5343779,23.9727629 69.3358228,23.9701013 C68.7574271,23.9781414 68.1798439,23.9238515 67.6130172,23.8081662 C67.1342879,23.7011046 66.678482,23.5091658 66.2670754,23.2413932 C65.8371234,22.9538191 65.5076822,22.5385821 65.3249161,22.053869 C65.0936455,21.4329719 64.9839677,20.7731853 65.0018901,20.1106475 L65.0018901,13.6602318 C64.9839677,12.9976941 65.0936455,12.3379074 65.3249161,11.7170104 C65.5076822,11.2322972 65.8371234,10.8170602 66.2670754,10.5294861 C66.678482,10.2617136 67.1342879,10.0697748 67.6130172,9.96271321 C68.1798439,9.8470279 68.7574271,9.79273796 69.3358228,9.80077809 C70.534374,9.798224 71.7313329,9.88845611 72.916028,10.07067 C73.0129771,10.0442914 73.1151861,10.0442914 73.2121352,10.07067 C73.2452742,10.1575662 73.2452742,10.2536656 73.2121352,10.3405618 L73.2121352,11.5550752 C73.2121352,11.6552869 73.17243,11.7513942 73.1017544,11.8222546 C73.0310787,11.8931149 72.935222,11.9329239 72.8352715,11.9329239 L69.0127967,11.9329239 C68.5956173,11.8892372 68.1784518,12.0156866 67.8552868,12.2837833 C67.5980347,12.6534799 67.4832617,13.1041824 67.5322607,13.5522751 L67.5322607,15.5764641 L72.6199208,15.5764641 C72.8280569,15.5764641 72.9967845,15.7456327 72.9967845,15.9543127 L72.9967845,17.3037721 C72.9967845,17.5124521 72.8280569,17.6816207 72.6199208,17.6816207 L67.5322607,17.6816207 L67.5322607,20.1106475 C67.4832617,20.5587403 67.5980347,21.0094427 67.8552868,21.3791393 C68.1784518,21.647236 68.5956173,21.7736854 69.0127967,21.7299988 L72.8352715,21.7299988 C73.0434076,21.7299988 73.2121352,21.8991673 73.2121352,22.1078474 L73.2121352,23.4303175 Z" id="Shape" fill="#292F3A"></path>
                    <path d="M84.3398287,11.0916449 L80.6788669,11.0916449 L80.6788669,23.2637682 C80.7096572,23.3510839 80.7096572,23.4463444 80.6788669,23.5336601 C80.6018054,23.5682987 80.5136589,23.5682987 80.4365974,23.5336601 L79.3060063,23.5336601 C79.2289448,23.5682987 79.1407982,23.5682987 79.0637367,23.5336601 C79.0329464,23.4463444 79.0329464,23.3510839 79.0637367,23.2637682 L79.0637367,11.0916449 L75.2950996,11.0916449 C75.2073995,11.1187032 75.1136114,11.1187032 75.0259113,11.0916449 C74.992254,11.0236292 74.992254,10.943747 75.0259113,10.8757314 L75.0259113,10.0660557 C74.9913629,9.98879286 74.9913629,9.90041594 75.0259113,9.82315306 C75.1129993,9.79228231 75.2080116,9.79228231 75.2950996,9.82315306 L84.3398287,9.82315306 C84.5731253,9.82315306 84.6897735,9.93110981 84.6897735,10.1470233 L84.6897735,10.9566989 C84.6897735,11.0466629 84.5731253,11.0916449 84.3398287,11.0916449 Z" id="Shape" fill="#292F3A"></path>
                    <path d="M93.8233763,23.7652384 C93.7796639,23.7796563 93.7324945,23.7796563 93.6887821,23.7652384 L92.9619735,23.7652384 L90.0009015,23.7652384 C88.9423757,23.8404762 87.8895194,23.5551768 87.0129106,22.9555627 C86.2821476,22.2589863 85.9143553,21.2623552 86.0169137,20.256644 L86.0169137,13.320423 C85.9143553,12.3147118 86.2821476,11.3180807 87.0129106,10.6215043 C87.8895194,10.0218902 88.9423757,9.73659081 90.0009015,9.81182867 L93.04273,9.81182867 L93.7964574,9.81182867 C93.8401698,9.79741076 93.8873392,9.79741076 93.9310516,9.81182867 C93.9447282,9.8649362 93.9447282,9.92065626 93.9310516,9.97376379 L93.9310516,10.9183853 C93.9310516,11.0803205 93.9310516,11.1342988 93.7157009,11.1342988 L90.0547392,11.1342988 C89.6521564,11.090164 89.2459743,11.090164 88.8433915,11.1342988 C88.5824938,11.1849125 88.3404259,11.3062628 88.1435018,11.4851583 C87.980699,11.647502 87.8684711,11.8537908 87.8204757,12.0789204 C87.7044228,12.482204 87.6499674,12.9007861 87.6589627,13.320423 L87.6589627,16.0193417 L93.4195937,16.0193417 C93.505734,15.9833561 93.6026418,15.9833561 93.6887821,16.0193417 C93.7246739,16.1057071 93.7246739,16.2028682 93.6887821,16.2892336 L93.6887821,16.9909524 C93.7246739,17.0773178 93.7246739,17.1744789 93.6887821,17.2608443 C93.6026418,17.2968299 93.505734,17.2968299 93.4195937,17.2608443 L87.6589627,17.2608443 L87.6589627,20.4455684 C87.6256175,20.7505323 87.6256175,21.0582368 87.6589627,21.3632007 C87.7019687,21.5979643 87.814538,21.8142858 87.9819888,21.983952 C88.1789129,22.1628475 88.4209807,22.2841977 88.6818785,22.3348114 C89.0844613,22.3789463 89.4906433,22.3789463 89.8932261,22.3348114 L93.5272691,22.3348114 C93.6618632,22.3348114 93.7426198,22.3348114 93.7426198,22.5507249 L93.7426198,23.5223357 C93.8016728,23.5887449 93.830877,23.6765865 93.8233763,23.7652384 Z" id="Shape" fill="#292F3A"></path>
                    <path d="M104.401178,20.2017291 C104.384912,20.6145125 104.312458,21.0231309 104.185827,21.4162425 C104.043862,21.8735061 103.794628,22.2899827 103.459019,22.630756 C103.053696,23.0217822 102.566211,23.3168818 102.03232,23.4944099 C101.296214,23.7456913 100.521586,23.8644735 99.7442191,23.8452694 C99.1614238,23.8776153 98.57729,23.8776153 97.9944947,23.8452694 L96.621634,23.6563451 C96.5250908,23.6856181 96.4220701,23.6856181 96.3255268,23.6563451 C96.3045807,23.5859059 96.3045807,23.5108707 96.3255268,23.4404316 L96.3255268,22.6037668 C96.2955626,22.5349307 96.2955626,22.4566893 96.3255268,22.3878533 C96.3955259,22.3651578 96.4708785,22.3651578 96.5408775,22.3878533 L97.2676861,22.3878533 L99.6365437,22.3878533 C100.108338,22.3985383 100.579353,22.3440483 101.036323,22.2259182 C101.354679,22.141048 101.649372,21.9840833 101.897726,21.767102 C102.110047,21.5783804 102.268065,21.3360751 102.355346,21.0653831 C102.40278,20.7613542 102.40278,20.4517796 102.355346,20.1477508 C102.395448,19.933709 102.395448,19.714052 102.355346,19.5000103 C102.266671,19.2888551 102.138781,19.0965189 101.978482,18.9332373 C101.832315,18.7316503 101.670285,18.5421204 101.493943,18.3664644 L100.41719,17.6647455 L98.5867091,16.5581889 C97.8565659,16.1395444 97.2014629,15.601321 96.6485529,14.9658268 C96.2100917,14.4154414 95.9811024,13.726678 96.0025008,13.0226054 C95.9633475,12.084417 96.3858869,11.1866958 97.1330919,10.6205677 C98.1396854,10.0214401 99.3025994,9.73935461 100.471028,9.81089212 L101.33243,9.81089212 L102.247671,9.81089212 L103.082155,9.81089212 L103.728207,9.81089212 C103.943558,9.81089212 104.051233,9.94583806 104.051233,10.1347624 L104.051233,10.944438 C104.051233,11.1423587 103.943558,11.241319 103.728207,11.241319 L102.220752,11.241319 L100.497946,11.241319 C99.7688737,11.1899265 99.0384178,11.3197127 98.3713584,11.6191677 C97.9109013,11.928796 97.6615762,12.4704122 97.7253063,13.0226054 C97.6816724,13.2272101 97.6816724,13.438752 97.7253063,13.6433567 C97.8198164,13.8432187 97.9472188,14.0256978 98.1021701,14.1831404 C98.2975032,14.385871 98.5141108,14.566849 98.7482221,14.7229242 L99.6634626,15.3166863 L101.386268,16.3422754 C101.866216,16.6232178 102.325057,16.9389315 102.759129,17.2868969 C103.096732,17.558329 103.403645,17.8660438 103.674369,18.2045293 C103.902312,18.4845387 104.075802,18.8049614 104.185827,19.1491508 C104.309877,19.4871902 104.382473,19.842024 104.401178,20.2017291 Z" id="Shape" fill="#292F3A"></path>
                    <path d="M115.31291,11.0916449 L111.651948,11.0916449 L111.651948,23.2637682 C111.682738,23.3510839 111.682738,23.4463444 111.651948,23.5336601 C111.574887,23.5682987 111.48674,23.5682987 111.409679,23.5336601 L110.279087,23.5336601 C110.202026,23.5682987 110.113879,23.5682987 110.036818,23.5336601 C110.006028,23.4463444 110.006028,23.3510839 110.036818,23.2637682 L110.036818,11.0916449 L106.2951,11.0916449 C106.207399,11.1187032 106.113611,11.1187032 106.025911,11.0916449 C105.992254,11.0236292 105.992254,10.943747 106.025911,10.8757314 L106.025911,10.0660557 C105.991363,9.98879286 105.991363,9.90041594 106.025911,9.82315306 C106.112999,9.79228231 106.208012,9.79228231 106.2951,9.82315306 L115.339829,9.82315306 C115.582098,9.82315306 115.689774,9.82315306 115.689774,10.1470233 L115.689774,10.9566989 C115.689774,11.0106773 115.555179,11.0916449 115.31291,11.0916449 Z" id="Shape" fill="#292F3A"></path>
                    <path d="M45.3121121,12.7434456 C45.8557436,12.1693101 46.6233774,11.8634275 47.4117814,11.9067808 C48.5101386,11.8800107 49.5903729,12.1908011 50.5074476,12.797424 C50.6388539,12.9112767 50.8336614,12.9112767 50.9650678,12.797424 L51.6649575,11.8258133 C51.6649575,11.6638781 51.8264706,11.4749538 51.6649575,11.3130187 C50.3666967,10.3002653 48.7602371,9.76655618 47.1156742,9.80162423 C46.5023658,9.80136075 45.8931411,9.90164412 45.3121121,10.0985053 C44.7248013,10.3083094 44.1783018,10.6188018 43.696982,11.0161377 C43.1358762,11.5019954 42.7093615,12.1248469 42.4587155,12.8244132 C42.1411839,13.687982 41.9860239,14.6030728 42.0010953,15.5233319 L42.0010953,18.2222506 C41.9877324,19.0080749 42.096718,19.7911795 42.3241213,20.5433207 C42.5034942,21.1423269 42.7959233,21.7012265 43.1855241,22.1896611 C43.8541307,22.9829925 44.7450861,23.5565748 45.7428135,23.8360015 C46.2468603,23.9458615 46.7613727,24.0001623 47.2771872,23.9979366 C48.612756,24.0469625 49.9409704,23.7787758 51.1534996,23.2152502 C51.3700076,23.1104691 51.5064426,22.8894982 51.5034445,22.6484773 L51.5034445,15.9821481 C51.5393363,15.8957827 51.5393363,15.7986216 51.5034445,15.7122562 C51.4173042,15.6762706 51.3203964,15.6762706 51.2342562,15.7122562 L47.3310249,15.7122562 C47.1228888,15.7122562 46.9541612,15.8814248 46.9541612,16.0901048 L46.9541612,17.4395642 C46.9541612,17.6482442 47.1228888,17.8174128 47.3310249,17.8174128 L48.8923174,17.8174128 L48.8923174,21.3799855 C48.389611,21.5500418 47.8614925,21.6322054 47.3310249,21.6228882 C46.578469,21.6567157 45.8462075,21.3728346 45.3121121,20.8402017 C44.7642393,20.0526474 44.5072328,19.0982837 44.5853036,18.141283 L44.5853036,15.4423643 C44.5182127,14.4864002 44.7742475,13.5356448 45.3121121,12.7434456 Z" id="Shape" fill="#292F3A"></path>
                </g>
            </g>
        </g>
    </g>
</svg>